<svg width="124" height="40" viewBox="0 0 124 40" fill="none" xmlns="http://www.w3.org/2000/svg">
    <path
        d="M87.8073 6.09156C85.3456 4.10148 81.6107 4.54372 79.6413 7.01006C78.7755 8.09864 78.385 9.35733 78.2492 10.7011C78.1643 11.6025 77.8757 12.436 77.4683 13.2354C76.178 15.8378 74.3105 17.981 72.0696 19.818C69.4212 21.9612 66.5011 23.441 63.0208 23.594C61.4759 23.6621 60.1687 24.3935 59.1501 25.5671C56.1621 28.986 57.9957 34.4289 62.4267 35.3134C65.7881 35.9938 68.9798 33.6295 69.4381 30.2106C69.557 29.2581 69.7947 28.3056 70.1682 27.4211C71.8659 23.3899 74.718 20.3793 78.4869 18.2702C80.3204 17.2496 82.2728 16.6713 84.3949 16.6883C86.1435 16.6883 87.6035 15.9229 88.707 14.5792C90.8631 11.9427 90.4557 8.23472 87.8073 6.09156Z"
        fill="black" />
    <path
        d="M46.8757 5.46222H54.7021V0.376465H33.9732V5.46222H41.7996V34.8201H33.9732V39.9059H54.7191V34.8201H46.8757V5.46222Z"
        fill="black" />
    <path
        d="M7.65887 0.376465L0.375732 8.88107V39.8889H5.45186V23.9512H21.3933V39.8889H26.4694V8.81304L18.4393 0.376465H7.65887ZM21.4102 18.8655H5.46883V10.7691L10.0017 5.46222H16.2662L21.3933 10.8541V18.8655H21.4102Z"
        fill="black" />
    <path
        d="M123.697 8.81304L115.667 0.376465H97.603V39.8889H102.679V23.9512H114.75L118.621 29.8194V39.9059H123.697V28.2886L119.418 21.8251L123.697 17.7599V8.81304ZM118.621 15.5657L115.157 18.8655H102.679V5.46222H113.493L118.621 10.8541V15.5657Z"
        fill="black" />
</svg>